<mxfile host="app.diagrams.net" modified="2020-07-12T03:45:55.731Z" agent="5.0 (Windows NT 10.0; Win64; x64) AppleWebKit/537.36 (KHTML, like Gecko) Chrome/83.0.4103.116 Safari/537.36" etag="PL2jbVDS8jSpw9uYW66U" version="13.4.2" type="github">
  <diagram id="58Neu5Cw5s71wltnfUX-" name="Page-1">
    <mxGraphModel dx="1320" dy="482" grid="1" gridSize="10" guides="1" tooltips="1" connect="1" arrows="1" fold="1" page="1" pageScale="1" pageWidth="827" pageHeight="1169" math="0" shadow="0">
      <root>
        <mxCell id="0" />
        <mxCell id="1" parent="0" />
        <mxCell id="VAorbJAsjVBUynpmFoNr-1" style="edgeStyle=orthogonalEdgeStyle;rounded=0;orthogonalLoop=1;jettySize=auto;html=1;exitX=0.5;exitY=1;exitDx=0;exitDy=0;entryX=0.5;entryY=0;entryDx=0;entryDy=0;" edge="1" parent="1" source="VAorbJAsjVBUynpmFoNr-2" target="VAorbJAsjVBUynpmFoNr-4">
          <mxGeometry relative="1" as="geometry" />
        </mxCell>
        <mxCell id="VAorbJAsjVBUynpmFoNr-2" value="开始" style="rounded=1;whiteSpace=wrap;html=1;fillColor=#ffff88;strokeColor=#36393d;" vertex="1" parent="1">
          <mxGeometry x="295" y="265" width="120" height="60" as="geometry" />
        </mxCell>
        <mxCell id="VAorbJAsjVBUynpmFoNr-37" style="edgeStyle=orthogonalEdgeStyle;rounded=0;orthogonalLoop=1;jettySize=auto;html=1;exitX=0.5;exitY=1;exitDx=0;exitDy=0;entryX=0.5;entryY=0;entryDx=0;entryDy=0;" edge="1" parent="1" source="VAorbJAsjVBUynpmFoNr-4" target="VAorbJAsjVBUynpmFoNr-34">
          <mxGeometry relative="1" as="geometry" />
        </mxCell>
        <mxCell id="VAorbJAsjVBUynpmFoNr-4" value="被除数tempA = {32&#39;b0, a}&lt;br&gt;除数&amp;nbsp; &amp;nbsp; tempB = {b, 32&#39;b0}&lt;br&gt;C = 32&amp;nbsp; &amp;nbsp;" style="rounded=0;whiteSpace=wrap;html=1;fillColor=#f9f7ed;strokeColor=#36393d;" vertex="1" parent="1">
          <mxGeometry x="275" y="355" width="170" height="90" as="geometry" />
        </mxCell>
        <mxCell id="VAorbJAsjVBUynpmFoNr-50" style="edgeStyle=orthogonalEdgeStyle;rounded=0;orthogonalLoop=1;jettySize=auto;html=1;exitX=0.5;exitY=1;exitDx=0;exitDy=0;entryX=0.5;entryY=0;entryDx=0;entryDy=0;" edge="1" parent="1" source="VAorbJAsjVBUynpmFoNr-19" target="VAorbJAsjVBUynpmFoNr-28">
          <mxGeometry relative="1" as="geometry">
            <mxPoint x="360.5882352941177" y="845" as="targetPoint" />
          </mxGeometry>
        </mxCell>
        <mxCell id="VAorbJAsjVBUynpmFoNr-52" style="edgeStyle=orthogonalEdgeStyle;rounded=1;orthogonalLoop=1;jettySize=auto;html=1;exitX=0;exitY=0.5;exitDx=0;exitDy=0;" edge="1" parent="1" source="VAorbJAsjVBUynpmFoNr-19">
          <mxGeometry relative="1" as="geometry">
            <mxPoint x="360" y="465" as="targetPoint" />
            <Array as="points">
              <mxPoint x="160" y="755" />
            </Array>
          </mxGeometry>
        </mxCell>
        <mxCell id="VAorbJAsjVBUynpmFoNr-19" value="C == 0" style="shape=parallelogram;perimeter=parallelogramPerimeter;whiteSpace=wrap;html=1;fillColor=#cce5ff;strokeColor=#36393d;" vertex="1" parent="1">
          <mxGeometry x="300" y="725" width="120" height="60" as="geometry" />
        </mxCell>
        <mxCell id="VAorbJAsjVBUynpmFoNr-28" value="END" style="rounded=0;whiteSpace=wrap;html=1;fillColor=#ffcc99;strokeColor=#36393d;" vertex="1" parent="1">
          <mxGeometry x="295" y="855" width="130" height="50" as="geometry" />
        </mxCell>
        <mxCell id="VAorbJAsjVBUynpmFoNr-29" value="Yes" style="text;html=1;strokeColor=none;fillColor=none;align=center;verticalAlign=middle;whiteSpace=wrap;rounded=0;" vertex="1" parent="1">
          <mxGeometry x="445" y="585" width="40" height="20" as="geometry" />
        </mxCell>
        <mxCell id="VAorbJAsjVBUynpmFoNr-33" value="No" style="text;html=1;strokeColor=none;fillColor=none;align=center;verticalAlign=middle;whiteSpace=wrap;rounded=0;" vertex="1" parent="1">
          <mxGeometry x="310" y="675" width="40" height="20" as="geometry" />
        </mxCell>
        <mxCell id="VAorbJAsjVBUynpmFoNr-41" style="edgeStyle=orthogonalEdgeStyle;rounded=0;orthogonalLoop=1;jettySize=auto;html=1;exitX=0.5;exitY=1;exitDx=0;exitDy=0;entryX=0.5;entryY=0;entryDx=0;entryDy=0;" edge="1" parent="1" source="VAorbJAsjVBUynpmFoNr-34" target="VAorbJAsjVBUynpmFoNr-40">
          <mxGeometry relative="1" as="geometry" />
        </mxCell>
        <mxCell id="VAorbJAsjVBUynpmFoNr-34" value="tempA &amp;lt;&amp;lt; 1" style="rounded=0;whiteSpace=wrap;html=1;fillColor=#ffcccc;strokeColor=#36393d;" vertex="1" parent="1">
          <mxGeometry x="230" y="485" width="260" height="50" as="geometry" />
        </mxCell>
        <mxCell id="VAorbJAsjVBUynpmFoNr-43" style="edgeStyle=orthogonalEdgeStyle;rounded=1;orthogonalLoop=1;jettySize=auto;html=1;exitX=1;exitY=0.5;exitDx=0;exitDy=0;entryX=0.5;entryY=0;entryDx=0;entryDy=0;" edge="1" parent="1" source="VAorbJAsjVBUynpmFoNr-40" target="VAorbJAsjVBUynpmFoNr-42">
          <mxGeometry relative="1" as="geometry" />
        </mxCell>
        <mxCell id="VAorbJAsjVBUynpmFoNr-46" style="edgeStyle=orthogonalEdgeStyle;rounded=0;orthogonalLoop=1;jettySize=auto;html=1;exitX=0.5;exitY=1;exitDx=0;exitDy=0;" edge="1" parent="1" source="VAorbJAsjVBUynpmFoNr-40" target="VAorbJAsjVBUynpmFoNr-19">
          <mxGeometry relative="1" as="geometry" />
        </mxCell>
        <mxCell id="VAorbJAsjVBUynpmFoNr-40" value="tempA &amp;gt;= tempB" style="shape=parallelogram;perimeter=parallelogramPerimeter;whiteSpace=wrap;html=1;fillColor=#cdeb8b;strokeColor=#36393d;" vertex="1" parent="1">
          <mxGeometry x="290" y="585" width="140" height="60" as="geometry" />
        </mxCell>
        <mxCell id="VAorbJAsjVBUynpmFoNr-42" value="tempA = tempA - tempB +1" style="rounded=0;whiteSpace=wrap;html=1;fillColor=#f9f7ed;strokeColor=#36393d;" vertex="1" parent="1">
          <mxGeometry x="520" y="635" width="200" height="50" as="geometry" />
        </mxCell>
        <mxCell id="VAorbJAsjVBUynpmFoNr-48" value="" style="endArrow=classic;html=1;exitX=0.5;exitY=1;exitDx=0;exitDy=0;" edge="1" parent="1" source="VAorbJAsjVBUynpmFoNr-42">
          <mxGeometry width="50" height="50" relative="1" as="geometry">
            <mxPoint x="430" y="875" as="sourcePoint" />
            <mxPoint x="360" y="705" as="targetPoint" />
            <Array as="points">
              <mxPoint x="620" y="705" />
            </Array>
          </mxGeometry>
        </mxCell>
        <mxCell id="VAorbJAsjVBUynpmFoNr-51" value="Yes" style="text;html=1;strokeColor=none;fillColor=none;align=center;verticalAlign=middle;whiteSpace=wrap;rounded=0;" vertex="1" parent="1">
          <mxGeometry x="310" y="815" width="40" height="20" as="geometry" />
        </mxCell>
        <mxCell id="VAorbJAsjVBUynpmFoNr-53" value="No" style="text;html=1;strokeColor=none;fillColor=none;align=center;verticalAlign=middle;whiteSpace=wrap;rounded=0;" vertex="1" parent="1">
          <mxGeometry x="200" y="735" width="40" height="20" as="geometry" />
        </mxCell>
        <mxCell id="VAorbJAsjVBUynpmFoNr-54" value="&lt;font style=&quot;font-size: 24px&quot; face=&quot;Comic Sans MS&quot;&gt;&lt;b&gt;D_A&lt;/b&gt;&lt;/font&gt;" style="text;html=1;align=center;verticalAlign=middle;whiteSpace=wrap;rounded=0;fillColor=none;fontColor=#FF8000;" vertex="1" parent="1">
          <mxGeometry x="160" y="400" width="100" height="20" as="geometry" />
        </mxCell>
        <mxCell id="VAorbJAsjVBUynpmFoNr-55" value="&lt;font style=&quot;font-size: 24px&quot; face=&quot;Comic Sans MS&quot;&gt;&lt;b&gt;D_B&lt;/b&gt;&lt;/font&gt;" style="text;html=1;align=center;verticalAlign=middle;whiteSpace=wrap;rounded=0;fillColor=none;fontColor=#FF8000;" vertex="1" parent="1">
          <mxGeometry x="520" y="500" width="100" height="20" as="geometry" />
        </mxCell>
        <mxCell id="VAorbJAsjVBUynpmFoNr-56" value="&lt;font style=&quot;font-size: 24px&quot; face=&quot;Comic Sans MS&quot;&gt;&lt;b&gt;D_D&lt;/b&gt;&lt;/font&gt;" style="text;html=1;align=center;verticalAlign=middle;whiteSpace=wrap;rounded=0;fillColor=none;fontColor=#FF8000;" vertex="1" parent="1">
          <mxGeometry x="445" y="870" width="100" height="20" as="geometry" />
        </mxCell>
        <mxCell id="VAorbJAsjVBUynpmFoNr-62" value="&lt;font style=&quot;font-size: 24px&quot; face=&quot;Comic Sans MS&quot;&gt;&lt;b&gt;D_C&lt;/b&gt;&lt;/font&gt;" style="text;html=1;align=center;verticalAlign=middle;whiteSpace=wrap;rounded=0;fillColor=none;fontColor=#FF8000;" vertex="1" parent="1">
          <mxGeometry x="445" y="755" width="100" height="20" as="geometry" />
        </mxCell>
      </root>
    </mxGraphModel>
  </diagram>
</mxfile>
